<svg width="15" height="11" viewBox="0 0 15 11" fill="none" xmlns="http://www.w3.org/2000/svg">
<path d="M12.5746 9.99647C13.33 10.0436 14.0026 9.61114 13.9996 9.09322V7.73833C14.0076 7.51684 13.8974 7.30106 13.6901 7.13202C13.1055 6.65532 11.1006 6.35039 10.3059 6.46749C9.68641 6.55878 9.25299 6.98941 8.82925 7.28219C7.94577 6.93509 7.14434 6.50251 6.44745 6M4.90737 4.57242C5.33111 4.27965 5.95437 3.98018 6.08649 3.55214C6.25572 3.00389 5.81589 1.62475 5.13207 1.21842C4.89155 1.0755 4.58402 0.997887 4.2668 1.00004H2.30586C1.5587 1.00053 0.937076 1.46447 1.0051 1.98459C1.00059 5.9519 4.9596 9.17486 10.3889 9.8613" stroke="#394959" stroke-linecap="round" stroke-linejoin="round"/>
</svg>
