<svg width="22" height="15" viewBox="0 0 22 15" fill="none" xmlns="http://www.w3.org/2000/svg">
<path d="M16.4545 14V13.0714C16.4545 11.0201 14.8265 9.35714 12.8182 9.35714H9.18182C7.17351 9.35714 5.54545 11.0201 5.54545 13.0714V14M21 14V13.0714C21 11.0201 19.3719 9.35714 17.3636 9.35714H16.9091M1 14V13.0714C1 11.0201 2.62806 9.35714 4.63636 9.35714H5.09091M15.5455 6.57143C17.0517 6.57143 18.2727 5.32422 18.2727 3.78571C18.2727 2.24721 17.0517 1 15.5455 1M6.45455 6.57143C4.94831 6.57143 3.72727 5.32422 3.72727 3.78571C3.72727 2.24721 4.94831 1 6.45455 1M13.7273 3.78571C13.7273 5.32422 12.5062 6.57143 11 6.57143C9.49377 6.57143 8.27273 5.32422 8.27273 3.78571C8.27273 2.24721 9.49377 1 11 1C12.5062 1 13.7273 2.24721 13.7273 3.78571Z" stroke="#394959" stroke-opacity="0.8" stroke-width="1.5" stroke-linecap="round" stroke-linejoin="round"/>
</svg>
