<svg width="21" height="17" viewBox="0 0 21 17" fill="none" xmlns="http://www.w3.org/2000/svg">
<path d="M17.9168 15.9941C19.0207 16.0727 20.0039 15.3519 19.9994 14.4887V12.2306C20.011 11.8614 19.8501 11.5018 19.5471 11.22C18.6927 10.4255 15.7625 9.91731 14.601 10.1125C13.6955 10.2646 13.0621 10.9824 12.4428 11.4703C11.1515 10.8918 9.98019 10.1709 8.96165 9.33333M6.71078 6.95403C7.33008 6.46608 8.241 5.96697 8.4341 5.25357C8.68144 4.33981 8.0386 2.04124 7.03918 1.36403C6.68765 1.12584 6.23818 0.996478 5.77455 1.00007H2.90856C1.81655 1.00088 0.908034 1.77412 1.00746 2.64099C1.00086 9.25317 6.78711 14.6248 14.7222 15.7688" stroke="white" stroke-width="2" stroke-linecap="round" stroke-linejoin="round"/>
</svg>
