<svg width="47" height="49" viewBox="0 0 47 49" fill="none" xmlns="http://www.w3.org/2000/svg">
<path d="M45.1725 0H37.7969C36.7333 0 35.8257 0.722779 35.5875 1.76177L33.4561 11.0717H1.91668C1.60458 11.0717 1.30889 11.2113 1.11588 11.4577C0.918757 11.7 0.844836 12.0203 0.91465 12.3242L4.53265 28.3855C4.63942 28.8537 5.0542 29.1863 5.53468 29.1863H29.3084L28.2611 33.7653H5.12401C3.07477 33.7653 1.23908 35.2149 0.93929 37.2436C0.565581 39.7775 2.52858 41.9622 4.9926 41.9622H24.9511C25.177 41.9622 25.3906 42.0444 25.563 42.1881L25.5795 42.2045C25.7232 42.3277 25.7561 42.529 25.6698 42.7014C25.2879 43.4653 25.1277 44.3605 25.2674 45.2928C25.5425 47.1449 27.025 48.652 28.873 48.9436C31.8422 49.4118 34.3801 46.8574 33.8791 43.8842C33.5588 41.9828 31.9613 40.4961 30.0435 40.2949C29.0537 40.1922 28.1215 40.4222 27.3454 40.8863C27.1647 40.993 27.1031 40.9643 26.9511 40.8206L26.4131 40.3113C26.2283 40.069 25.7602 39.913 25.4316 39.913H5.06652C4.08502 39.913 3.18155 39.2559 2.98853 38.2908C2.7257 36.9767 3.72363 35.8227 4.9926 35.8227H28.3145C29.2509 35.8227 30.0476 35.1862 30.257 34.2745L31.5301 28.7181L32.914 22.669V22.6525L34.1173 17.396L34.1419 17.2974L35.259 12.4063L35.2836 12.3078L37.5916 2.22172C37.6162 2.12316 37.7024 2.05746 37.801 2.05746H45.1315C45.6161 2.05746 46.0678 1.74535 46.1746 1.27718C46.3265 0.599578 45.8214 0.0041067 45.1766 0.0041067L45.1725 0ZM29.0907 42.5084C30.6677 42.1676 32.0393 43.531 31.7067 45.108C31.5383 45.9088 30.9018 46.5576 30.1051 46.7465C28.5034 47.1285 27.0866 45.7158 27.4603 44.1141C27.6451 43.3174 28.294 42.6809 29.0907 42.5084ZM32.3145 16.0613H12.1547C11.6742 16.0613 11.2225 16.3652 11.1075 16.8334C10.9432 17.511 11.4524 18.1146 12.1013 18.1146H31.8381L31.0824 21.4205H17.8753C17.3948 21.4205 16.9431 21.7244 16.8281 22.1926C16.6638 22.8702 17.1731 23.4739 17.8219 23.4739H30.6266L29.8299 27.1329H6.35602L3.19797 13.125H32.988L32.3145 16.0613Z" fill="white"/>
</svg>
